<svg width="48" height="35" viewBox="0 0 48 35" fill="none" xmlns="http://www.w3.org/2000/svg">
<path d="M46.3297 10.2083H40.8461L39.322 6.41667C37.7558 2.51836 34.018 0 29.7984 0H18.1663C13.9477 0 10.2089 2.51836 8.64179 6.41667L7.11771 10.2083H1.63508C0.91975 10.2083 0.394933 10.8773 0.568956 11.5673L1.1185 13.7548C1.24032 14.2415 1.67995 14.5833 2.18462 14.5833H4.02285C2.79279 15.6525 2.00052 17.2065 2.00052 18.9583V23.3333C2.00052 24.8026 2.56472 26.1288 3.46598 27.1551V32.0833C3.46598 33.6939 4.77848 35 6.39689 35H9.3278C10.9462 35 12.2587 33.6939 12.2587 32.0833V29.1667H35.706V32.0833C35.706 33.6939 37.0185 35 38.6369 35H41.5678C43.1862 35 44.4987 33.6939 44.4987 32.0833V27.1551C45.4 26.1297 45.9642 24.8035 45.9642 23.3333V18.9583C45.9642 17.2065 45.1719 15.6525 43.9428 14.5833H45.781C46.2857 14.5833 46.7253 14.2415 46.8471 13.7548L47.3967 11.5673C47.5698 10.8773 47.045 10.2083 46.3297 10.2083ZM14.0841 8.5832C14.7518 6.92253 16.3684 5.83333 18.1663 5.83333H29.7984C31.5963 5.83333 33.2129 6.92253 33.8806 8.5832L35.706 13.125H12.2587L14.0841 8.5832ZM9.3278 23.3151C7.56926 23.3151 6.39689 22.1521 6.39689 20.4076C6.39689 18.663 7.56926 17.5 9.3278 17.5C11.0864 17.5 13.7242 20.1168 13.7242 21.8613C13.7242 23.6059 11.0864 23.3151 9.3278 23.3151ZM38.6369 23.3151C36.8784 23.3151 34.2406 23.6059 34.2406 21.8613C34.2406 20.1168 36.8784 17.5 38.6369 17.5C40.3955 17.5 41.5678 18.663 41.5678 20.4076C41.5678 22.1521 40.3955 23.3151 38.6369 23.3151Z" fill="#CE2C25"/>
</svg>
