<svg width="32" height="35" viewBox="0 0 32 35" fill="none" xmlns="http://www.w3.org/2000/svg">
<path d="M26.7532 21.0748L28.3739 16.7954C28.6452 16.0776 28.123 15.3119 27.3567 15.3119H23.3897C24.1356 14.0199 24.5968 12.5365 24.5968 10.9368V10.9163C27.255 10.3831 28.9368 9.61061 28.9368 8.74925C28.9368 7.84005 27.0855 7.03338 24.1831 6.49333C23.5592 4.25108 22.3522 1.99515 21.4299 0.833012C20.7857 0.0195119 19.6736 -0.233425 18.7513 0.231432L16.8797 1.17482C16.2694 1.48244 15.5506 1.48244 14.9403 1.17482L13.0686 0.231432C12.1464 -0.233425 11.0343 0.0195119 10.39 0.833012C9.47456 1.99515 8.26072 4.25108 7.63685 6.49333C4.74125 7.03338 2.88997 7.84005 2.88997 8.74925C2.88997 9.61061 4.57172 10.3831 7.22997 10.9163V10.9368C7.22997 12.5365 7.6911 14.0199 8.43703 15.3119H4.53781C3.75797 15.3119 3.23581 16.1118 3.54097 16.8364L5.29053 20.9517C2.57125 22.5446 0.719971 25.4773 0.719971 28.8748V31.9374C0.719971 33.6259 2.083 35 3.75797 35H28.062C29.7369 35 31.1 33.6259 31.1 31.9374V28.8748C31.1 25.5661 29.3504 22.695 26.7532 21.0748ZM12.655 32.8124L9.83397 19.6871L13.1975 21.8746L14.825 24.6091L12.655 32.8124ZM19.165 32.8124L16.995 24.6091L18.6225 21.8746L21.986 19.6871L19.165 32.8124ZM21.9928 12.4066C21.7283 13.2201 21.5181 14.0883 20.8738 14.6899C20.1889 15.3256 17.6188 16.2211 16.5338 12.9808C16.344 12.4066 15.4895 12.4066 15.2929 12.9808C14.1401 16.4126 11.4954 15.1957 10.9529 14.6899C10.3087 14.0883 10.0917 13.2201 9.83397 12.4066C9.77972 12.2357 9.40675 12.0169 9.40675 12.0101V11.2718C11.3258 11.5179 13.5433 11.6683 15.9168 11.6683C18.2902 11.6683 20.5077 11.5247 22.4268 11.2718V12.0101C22.42 12.0169 22.047 12.2288 21.9928 12.4066Z" fill="#CE2C25"/>
</svg>
