<svg width="40" height="28" viewBox="0 0 40 28" fill="none" xmlns="http://www.w3.org/2000/svg">
<path d="M6.68005 12C8.84217 12 10.6 10.2063 10.6 8C10.6 5.79375 8.84217 4 6.68005 4C4.51792 4 2.76005 5.79375 2.76005 8C2.76005 10.2063 4.51792 12 6.68005 12ZM34.12 12C36.2822 12 38.0401 10.2063 38.0401 8C38.0401 5.79375 36.2822 4 34.12 4C31.9579 4 30.2001 5.79375 30.2001 8C30.2001 10.2063 31.9579 12 34.12 12ZM36.08 14H32.16C31.0821 14 30.1082 14.4438 29.3977 15.1625C31.866 16.5438 33.6178 19.0375 33.9976 22H38.0401C39.1242 22 40 21.1063 40 20V18C40 15.7937 38.2422 14 36.08 14ZM20.4 14C24.1914 14 27.26 10.8687 27.26 7C27.26 3.13125 24.1914 0 20.4 0C16.6087 0 13.54 3.13125 13.54 7C13.54 10.8687 16.6087 14 20.4 14ZM25.104 16H24.5957C23.3217 16.625 21.9068 17 20.4 17C18.8933 17 17.4845 16.625 16.2044 16H15.696C11.8005 16 8.64005 19.225 8.64005 23.2V25C8.64005 26.6562 9.95692 28 11.58 28H29.22C30.8432 28 32.16 26.6562 32.16 25V23.2C32.16 19.225 28.9995 16 25.104 16ZM11.4024 15.1625C10.6919 14.4438 9.71805 14 8.64005 14H4.72005C2.55792 14 0.800049 15.7937 0.800049 18V20C0.800049 21.1063 1.67592 22 2.76005 22H6.79642C7.1823 19.0375 8.93405 16.5438 11.4024 15.1625Z" fill="#CE2C25"/>
</svg>
